<svg width="438" height="478" viewBox="0 0 438 478" fill="none" xmlns="http://www.w3.org/2000/svg">
<g opacity="0.8" filter="url(#filter0_d_137_369)">
<path d="M4 2H434V347.255C434 360.564 434 367.219 431.555 372.898C430.174 376.106 428.243 379.049 425.849 381.593C421.612 386.096 415.508 388.745 403.298 394.042L239.298 465.194C231.079 468.759 226.97 470.542 222.675 471.072C220.234 471.374 217.766 471.374 215.325 471.072C211.03 470.542 206.921 468.759 198.702 465.193L34.7016 394.042C22.4922 388.745 16.3876 386.096 12.1507 381.593C9.75699 379.049 7.82601 376.106 6.44479 372.898C4 367.219 4 360.564 4 347.255V2Z" fill="#A82AC8" fill-opacity="0.3" shape-rendering="crispEdges"/>
</g>
<defs>
<filter id="filter0_d_137_369" x="0" y="0" width="438" height="477.298" filterUnits="userSpaceOnUse" color-interpolation-filters="sRGB">
<feFlood flood-opacity="0" result="BackgroundImageFix"/>
<feColorMatrix in="SourceAlpha" type="matrix" values="0 0 0 0 0 0 0 0 0 0 0 0 0 0 0 0 0 0 127 0" result="hardAlpha"/>
<feOffset dy="2"/>
<feGaussianBlur stdDeviation="2"/>
<feComposite in2="hardAlpha" operator="out"/>
<feColorMatrix type="matrix" values="0 0 0 0 0 0 0 0 0 0 0 0 0 0 0 0 0 0 0.25 0"/>
<feBlend mode="normal" in2="BackgroundImageFix" result="effect1_dropShadow_137_369"/>
<feBlend mode="normal" in="SourceGraphic" in2="effect1_dropShadow_137_369" result="shape"/>
</filter>
</defs>
</svg>
