<svg width="100" height="100" viewBox="0 0 100 100" fill="none" xmlns="http://www.w3.org/2000/svg">
<path d="M73.8438 17.0391C75.75 16.1172 77.0703 14.1719 77.0703 11.9141C77.0703 10.4056 76.4711 8.95901 75.4045 7.89239C74.3379 6.82578 72.8912 6.22656 71.3828 6.22656C69.8744 6.22656 68.4278 6.82578 67.3611 7.89239C66.2945 8.95901 65.6953 10.4056 65.6953 11.9141C65.6953 14.2031 67.0469 16.1641 68.9922 17.0703C66.7422 29.2578 63.2891 38.3281 50.4375 40.2656C50.4375 40.2656 53.8984 57.5703 70.0859 57.5703C86.2734 57.5703 87.9141 40.4375 87.9141 40.4375C74.7812 41.1094 73.6719 24.6016 73.8438 17.0391Z" fill="#F19534"/>
<path d="M27.1406 17.0391C25.2344 16.1172 23.9141 14.1719 23.9141 11.9141C23.9141 10.4056 24.5133 8.95901 25.5799 7.89239C26.6465 6.82578 28.0931 6.22656 29.6016 6.22656C31.11 6.22656 32.5566 6.82578 33.6232 7.89239C34.6898 8.95901 35.2891 10.4056 35.2891 11.9141C35.2891 14.2031 33.9375 16.1641 31.9922 17.0703C34.2422 29.2578 37.6953 38.3281 50.5469 40.2656C50.5469 40.2656 47.0859 57.5703 30.8984 57.5703C14.7109 57.5703 13.0781 40.4453 13.0781 40.4453C26.2031 41.1094 27.3125 24.6016 27.1406 17.0391Z" fill="#F19534"/>
<path d="M69.8672 57.5703C69.9375 57.5703 70.0078 57.5781 70.0781 57.5781C74.5391 57.5781 77.8906 56.2734 80.4062 54.3906L69.8672 57.5703Z" fill="#FFCA28"/>
<path d="M93.1554 13.1719C90.5538 12.8203 88.0694 15.2969 87.6163 18.6875C87.3351 20.8047 87.9054 22.7812 89.0069 24.0547L87.1319 31.8281C87.1319 31.8281 84.2647 50.1953 69.7804 53.8203C58.2022 56.7187 54.0069 35.5234 52.9913 28.9766C55.1944 27.8828 56.7179 25.6172 56.7179 22.9844C56.7179 19.2891 53.7257 16.2969 50.0304 16.2969C46.335 16.2969 43.3429 19.2891 43.3429 22.9844C43.3429 25.6328 44.8897 27.9219 47.1319 29C46.3272 35.4609 42.7804 55.9531 30.2804 53.8125C17.5929 51.6328 12.0538 30.2656 10.7725 24.4531C12.296 23.2031 13.1475 21 12.835 18.6328C12.3819 15.2344 9.69442 12.7969 6.83505 13.1797C3.97567 13.5625 2.03036 16.625 2.48348 20.0156C2.81161 22.4844 4.32723 24.4453 6.22567 25.1875L16.1632 86.9297C16.1632 86.9297 24.835 93.7812 50.0304 93.7812C75.2257 93.7812 83.8975 86.9297 83.8975 86.9297L93.8585 25.0234C95.4679 24.1797 96.7335 22.2812 97.046 19.9531C97.5069 16.5547 95.7647 13.5234 93.1554 13.1719Z" fill="#FFCA28"/>
<path d="M50.3438 78.0547C54.5463 78.0547 57.9531 73.9938 57.9531 68.9844C57.9531 63.975 54.5463 59.9141 50.3438 59.9141C46.1412 59.9141 42.7344 63.975 42.7344 68.9844C42.7344 73.9938 46.1412 78.0547 50.3438 78.0547Z" fill="#1B3A4B"/>
<path d="M50.3445 62.1562C50.6414 62.4844 50.907 63.0859 50.3445 64.2578C49.782 65.4297 46.7508 67.0156 46.1961 67.3359C45.6414 67.6641 45.2742 67.5156 45.1023 67.3828C44.282 66.7266 44.5945 65.2422 45.1258 64.3359C46.2664 62.375 48.6805 60.3516 50.3445 62.1562Z" fill="#006466"/>
<path d="M49.7814 72.3672C48.922 72.7812 46.1017 74.0391 47.0314 75.5312C47.5782 76.4141 48.711 76.7891 49.7501 76.8359C50.7892 76.8828 51.8126 76.5547 52.7345 76.0781C57.1095 73.8125 57.461 67.8594 56.6095 67.4062C55.7345 66.9375 55.1407 68.1484 54.6876 68.6641C53.3098 70.2071 51.643 71.4652 49.7814 72.3672Z" fill="#144552"/>
<path d="M92.2585 61.5625C93.4773 54.8203 88.946 53.1328 88.946 53.1328C88.946 53.1328 86.0242 52.6016 84.6492 60.1875C83.2742 67.7656 86.196 68.2969 86.196 68.2969C86.196 68.2969 91.032 68.3047 92.2585 61.5625Z" fill="#1B3A4B"/>
<path d="M90.243 55.4375C91.3054 56.8594 90.0476 58.9609 88.0086 60.3594C87.407 60.7734 86.6101 60.6172 86.493 60.2734C86.1648 59.2891 86.3055 58.1719 86.743 57.2266C88.0398 54.3906 89.7039 54.7187 90.243 55.4375Z" fill="#006466"/>
<path d="M7.62437 61.7656C6.39781 55.0313 10.9369 53.3359 10.9369 53.3359C10.9369 53.3359 13.8587 52.8047 15.2337 60.3906C16.6087 67.9688 13.6869 68.5 13.6869 68.5C13.6869 68.5 8.84312 68.5078 7.62437 61.7656Z" fill="#1B3A4B"/>
<path d="M12.3287 55.625C13.3756 56.4063 12.9459 57.4297 12.1569 58.1406C11.2584 58.9609 10.5709 59.8594 9.80529 60.7891C9.68811 60.9297 9.55529 61.0859 9.36779 61.125C9.00842 61.2031 8.71936 60.8359 8.60217 60.4844C8.26623 59.5 8.32873 58.3437 8.82873 57.4375C10.2506 54.8516 11.9225 55.3203 12.3287 55.625Z" fill="#006466"/>
<path d="M78.1174 68.0937C77.5783 71.1641 75.1174 73.2969 72.6096 72.8594C70.1018 72.4219 69.758 69.8047 70.2971 66.7344C70.8361 63.6641 72.0471 61.3125 74.5471 61.75C77.0549 62.1875 78.6564 65.0312 78.1174 68.0937Z" fill="#4D194D"/>
<path d="M23.7736 68.0937C24.3127 71.1641 26.7736 73.2969 29.2815 72.8594C31.7893 72.4219 32.133 69.8047 31.594 66.7344C31.0549 63.6641 29.844 61.3125 27.344 61.75C24.844 62.1875 23.2424 65.0312 23.7736 68.0937Z" fill="#4D194D"/>
<path d="M27.4071 66.0469C26.8368 66.6875 25.4461 67.9766 24.954 66.9922C24.2821 65.6484 25.2118 63.6172 26.2743 62.9453C27.3368 62.2734 28.204 62.8047 28.3524 63.4063C28.5321 64.1719 27.9149 65.4688 27.4071 66.0469Z" fill="#FFA8A4" fill-opacity="0.1"/>
<path d="M71.8592 68.0078C71.0858 67.8906 70.9998 65.2266 73.0779 63.1328C74.0701 62.1328 75.492 63.3203 75.1326 64.9219C74.7889 66.4453 73.2733 68.2266 71.8592 68.0078Z" fill="#FFA8A4" fill-opacity="0.1"/>
<path d="M85.2734 76.7266C80.5938 79.0703 69.8594 85.3125 50.0391 85.3125C30.2188 85.3125 19.4844 79.0703 14.8047 76.7266C14.8047 76.7266 13.125 77.625 13.125 78.5625V85.7578C13.125 86.7187 13.6328 87.6016 14.4609 88.0938C18.1172 90.25 29.2578 95.3438 50.0469 95.3438C70.8359 95.3438 81.9766 90.25 85.6328 88.0938C86.0393 87.8541 86.3763 87.5126 86.6106 87.1029C86.8448 86.6933 86.9683 86.2297 86.9688 85.7578V78.5625C86.9531 77.625 85.2734 76.7266 85.2734 76.7266Z" fill="#FFCA28"/>
<path d="M30.9375 86.5937C33.125 87.0234 33.7891 87.2109 33.6406 88.4297C33.3359 90.8281 28.3594 90.2578 25.4141 89.4844C19.3281 87.8828 18.0938 86.1953 18.0938 84.6875C18.0938 83.3047 19.1563 83.1406 20.7969 83.7188C22.7578 84.4141 25.7891 85.5859 30.9375 86.5937Z" fill="#FFF59D"/>
<path d="M85.2734 78.3047C85.2734 78.3047 72.3281 85.6328 50.0391 85.6328C27.75 85.6328 14.8047 78.3047 14.8047 78.3047" stroke="#F19534" stroke-width="4" stroke-miterlimit="10" stroke-linecap="round"/>
<path d="M21.07 38.7266C25.2262 35.7578 27.4606 30.4375 27.6559 21.9688C27.6715 21.2031 27.8903 20.9766 28.3043 20.9297C28.9684 20.8594 29.0778 21.4609 29.07 21.8906C28.8825 31.0312 27.7184 36.7422 23.109 39.9609C22.8825 40.1172 21.2653 41.1016 20.5778 40.4219C19.7575 39.625 20.8043 38.9141 21.07 38.7266Z" fill="#FFCA28"/>
<path d="M24.8748 12.1406C24.742 10.7266 25.0701 8.17969 28.781 7.02344C29.867 6.6875 30.5388 7.21875 30.6638 7.63281C30.9763 8.66406 30.0701 9.07031 29.656 9.20313C26.8045 10.125 26.6638 11.5469 26.0779 12.4531C25.492 13.3594 24.9217 12.5703 24.8748 12.1406Z" fill="#FFCA28"/>
<path d="M61.1101 36.8516C64.8679 33.5156 67.3601 29.7891 69.0007 21.3047C69.1491 20.5547 69.3679 20.3516 69.7741 20.3672C70.4382 20.3828 70.4695 21 70.3991 21.4219C69.0085 30.4688 67.6882 33.0469 63.0554 38.1797C62.532 38.7578 61.2585 39.2813 60.5398 38.6797C59.8913 38.1406 60.6413 37.2734 61.1101 36.8516Z" fill="#FFCA28"/>
<path d="M66.6404 12.2109C66.5076 10.7969 66.8357 8.25 70.5467 7.09375C71.6326 6.75782 72.3045 7.28907 72.4295 7.70313C72.742 8.73438 71.8357 9.14063 71.4217 9.27344C68.5701 10.1953 68.4295 11.6172 67.8435 12.5234C67.2654 13.4297 66.6873 12.6406 66.6404 12.2109Z" fill="#FFCA28"/>
<path d="M24.68 55.9531C15.6019 51.8359 12.93 41.0938 11.5082 36.4297C11.3207 35.8125 11.4144 35.2266 12.0316 35.0391C12.6488 34.8516 13.016 35.25 13.2113 35.8672C14.2425 39.25 18.2504 50.5469 26.5238 53.7578C27.1254 53.9922 28.0629 54.5625 27.555 55.5391C27.2191 56.1719 26.141 56.6172 24.68 55.9531Z" fill="#FFF59D"/>
<path d="M9.90623 19.2422C9.46873 18.3359 9.28904 17.4766 6.90623 16.4844C6.30467 16.2344 5.90623 15.6797 6.07029 15.0547C6.23435 14.4297 6.85935 13.9609 7.7656 14.1172C10.7109 14.625 11.3515 17.6172 11.4765 18.6562C11.5937 19.6562 10.3515 20.1484 9.90623 19.2422Z" fill="#FFF59D"/>
<path d="M75.6807 55.9531C84.7588 51.8359 87.4307 41.0938 88.8525 36.4297C89.04 35.8125 88.9463 35.2266 88.3291 35.0391C87.7119 34.8516 87.3447 35.25 87.1494 35.8672C86.1182 39.25 82.1103 50.5469 73.8369 53.7578C73.2353 53.9922 72.2978 54.5625 72.8057 55.5391C73.1416 56.1719 74.2197 56.6172 75.6807 55.9531Z" fill="#FFF59D"/>
<path d="M90.453 19.2422C90.8905 18.3359 91.0702 17.4766 93.453 16.4844C94.0546 16.2344 94.453 15.6797 94.289 15.0547C94.1249 14.4297 93.4999 13.9609 92.5937 14.1172C89.6483 14.625 89.0077 17.6172 88.8827 18.6562C88.7655 19.6562 90.0155 20.1484 90.453 19.2422Z" fill="#FFF59D"/>
<path d="M46.39 23.0859C46.8666 22.1094 47.7025 20.7734 50.4291 20.2109C51.476 19.9922 51.7807 19.5391 51.6869 18.8516C51.4994 17.4219 49.7182 17.5234 48.7572 17.75C45.5541 18.5 44.8432 21.3438 44.7104 22.4688C44.5775 23.5391 45.9213 24.0625 46.39 23.0859Z" fill="#FFF59D"/>
</svg>
