<svg width="300" height="300" viewBox="0 0 300 300" fill="none" xmlns="http://www.w3.org/2000/svg">
<circle cx="150" cy="150" r="149" fill="url(#paint0_angular_107_241)" stroke="url(#paint1_linear_107_241)" stroke-width="2"/>
<circle cx="151.148" cy="149.339" r="132.445" stroke="#EDE8EB" stroke-width="6"/>
<path d="M150.663 291.487L144.781 284.21H156.545L150.663 291.487Z" fill="#EDE8EB"/>
<path d="M50.6739 249.785L51.6603 240.48L59.9789 248.798L50.6739 249.785Z" fill="#EDE8EB"/>
<path d="M9 149.824L16.2772 143.942L16.2772 155.706L9 149.824Z" fill="#EDE8EB"/>
<path d="M50.2148 49.6736L59.5199 50.6601L51.2013 58.9786L50.2148 49.6736Z" fill="#EDE8EB"/>
<path d="M150.176 8L156.058 15.2772L144.294 15.2772L150.176 8Z" fill="#EDE8EB"/>
<path d="M251.595 48.8648L250.608 58.1699L242.29 49.8513L251.595 48.8648Z" fill="#EDE8EB"/>
<path d="M292 149.176L284.723 155.058L284.723 143.294L292 149.176Z" fill="#EDE8EB"/>
<path d="M251.594 249.785L242.289 248.798L250.607 240.48L251.594 249.785Z" fill="#EDE8EB"/>
<circle cx="89.5" cy="278.5" r="3.5" fill="url(#paint2_radial_107_241)"/>
<circle cx="18.5" cy="204.5" r="3.5" fill="url(#paint3_radial_107_241)"/>
<circle cx="18.5" cy="92.5" r="3.5" fill="url(#paint4_radial_107_241)"/>
<circle cx="95.5" cy="17.5" r="3.5" fill="url(#paint5_radial_107_241)"/>
<circle cx="206.5" cy="17.5" r="3.5" fill="url(#paint6_radial_107_241)"/>
<circle cx="279.5" cy="87.5" r="3.5" fill="url(#paint7_radial_107_241)"/>
<circle cx="280.5" cy="208.5" r="3.5" fill="url(#paint8_radial_107_241)"/>
<circle cx="206.5" cy="280.5" r="3.5" fill="url(#paint9_radial_107_241)"/>
<defs>
<radialGradient id="paint0_angular_107_241" cx="0" cy="0" r="1" gradientUnits="userSpaceOnUse" gradientTransform="translate(150 150) rotate(134.438) scale(144.257)">
<stop offset="0.189603" stop-color="#7A0909"/>
<stop offset="0.796702" stop-color="#BE1E1E"/>
</radialGradient>
<linearGradient id="paint1_linear_107_241" x1="150" y1="0" x2="150" y2="300" gradientUnits="userSpaceOnUse">
<stop stop-color="#D93E3E"/>
<stop offset="1" stop-color="#DAB0B0"/>
</linearGradient>
<radialGradient id="paint2_radial_107_241" cx="0" cy="0" r="1" gradientUnits="userSpaceOnUse" gradientTransform="translate(89.5 278.5) rotate(90) scale(3.5)">
<stop stop-color="#FFF09C"/>
<stop offset="0.784" stop-color="#887643"/>
</radialGradient>
<radialGradient id="paint3_radial_107_241" cx="0" cy="0" r="1" gradientUnits="userSpaceOnUse" gradientTransform="translate(18.5 204.5) rotate(90) scale(3.5)">
<stop stop-color="#FFF09C"/>
<stop offset="0.784" stop-color="#887643"/>
</radialGradient>
<radialGradient id="paint4_radial_107_241" cx="0" cy="0" r="1" gradientUnits="userSpaceOnUse" gradientTransform="translate(18.5 92.5) rotate(90) scale(3.5)">
<stop stop-color="#FFF09C"/>
<stop offset="0.784" stop-color="#887643"/>
</radialGradient>
<radialGradient id="paint5_radial_107_241" cx="0" cy="0" r="1" gradientUnits="userSpaceOnUse" gradientTransform="translate(95.5 17.5) rotate(90) scale(3.5)">
<stop stop-color="#FFF09C"/>
<stop offset="0.784" stop-color="#887643"/>
</radialGradient>
<radialGradient id="paint6_radial_107_241" cx="0" cy="0" r="1" gradientUnits="userSpaceOnUse" gradientTransform="translate(206.5 17.5) rotate(90) scale(3.5)">
<stop stop-color="#FFF09C"/>
<stop offset="0.784" stop-color="#887643"/>
</radialGradient>
<radialGradient id="paint7_radial_107_241" cx="0" cy="0" r="1" gradientUnits="userSpaceOnUse" gradientTransform="translate(279.5 87.5) rotate(90) scale(3.5)">
<stop stop-color="#FFF09C"/>
<stop offset="0.784" stop-color="#887643"/>
</radialGradient>
<radialGradient id="paint8_radial_107_241" cx="0" cy="0" r="1" gradientUnits="userSpaceOnUse" gradientTransform="translate(280.5 208.5) rotate(90) scale(3.5)">
<stop stop-color="#FFF09C"/>
<stop offset="0.784" stop-color="#887643"/>
</radialGradient>
<radialGradient id="paint9_radial_107_241" cx="0" cy="0" r="1" gradientUnits="userSpaceOnUse" gradientTransform="translate(206.5 280.5) rotate(90) scale(3.5)">
<stop stop-color="#FFF09C"/>
<stop offset="0.784" stop-color="#887643"/>
</radialGradient>
</defs>
</svg>
