<svg width="24" height="24" viewBox="0 0 24 24" fill="none" xmlns="http://www.w3.org/2000/svg">
<path d="M12.75 8.25C12.75 7.83579 12.4142 7.5 12 7.5C11.5858 7.5 11.25 7.83579 11.25 8.25V18.75C11.25 19.1642 11.5858 19.5 12 19.5C12.4142 19.5 12.75 19.1642 12.75 18.75V8.25Z" fill="#1E293B"/>
<path d="M8.59824 7.50049C9.01219 7.4857 9.35975 7.80929 9.37453 8.22324L9.74953 18.7232C9.76432 19.1372 9.44073 19.4847 9.02678 19.4995C8.61283 19.5143 8.26527 19.1907 8.25049 18.7768L7.87549 8.27678C7.8607 7.86283 8.18429 7.51527 8.59824 7.50049Z" fill="#1E293B"/>
<path d="M16.1245 8.27678C16.1393 7.86283 15.8157 7.51527 15.4018 7.50049C14.9878 7.4857 14.6403 7.80929 14.6255 8.22324L14.2505 18.7232C14.2357 19.1372 14.5593 19.4847 14.9732 19.4995C15.3872 19.5143 15.7347 19.1907 15.7495 18.7768L16.1245 8.27678Z" fill="#1E293B"/>
<path fill-rule="evenodd" clip-rule="evenodd" d="M8.39143 2.65798C8.2975 2.88567 8.24945 3.12966 8.25 3.37596V4.5H3.75C3.33579 4.5 3 4.83579 3 5.25C3 5.66421 3.33579 6 3.75 6H4.54544L5.43875 20.293C5.5039 21.5196 6.429 22.5 7.68753 22.5H16.3125C17.583 22.5 18.4868 21.5108 18.5611 20.2958L19.4546 6H20.25C20.6642 6 21 5.66421 21 5.25C21 4.83579 20.6642 4.5 20.25 4.5H15.75V3.37612C15.7506 3.12976 15.7025 2.88572 15.6086 2.65798C15.5145 2.4299 15.3763 2.22267 15.2018 2.04821C15.0273 1.87375 14.8201 1.73551 14.592 1.64143C14.3643 1.5475 14.1203 1.49945 13.874 1.5H10.126C9.87966 1.49945 9.63567 1.5475 9.40798 1.64143C9.1799 1.73551 8.97267 1.87376 8.79821 2.04821C8.62376 2.22267 8.48551 2.4299 8.39143 2.65798ZM10.1228 3C10.0738 2.99986 10.0253 3.0094 9.97997 3.02809C9.93468 3.04677 9.89352 3.07423 9.85887 3.10887C9.82423 3.14352 9.79677 3.18468 9.77809 3.22997C9.7594 3.27527 9.74986 3.32381 9.75 3.37281L9.75 3.375V4.5H14.25V3.375L14.25 3.37281C14.2502 3.32381 14.2406 3.27527 14.2219 3.22997C14.2032 3.18467 14.1758 3.14352 14.1411 3.10887C14.1065 3.07423 14.0653 3.04677 14.02 3.02809C13.9747 3.0094 13.9262 2.99986 13.8772 3L13.875 3H10.125L10.1228 3ZM9 6L8.9973 6H6.04836L6.93606 20.2032L6.93654 20.2115C6.96247 20.7163 7.29759 21 7.68753 21H16.3125C16.6986 21 17.0322 20.7226 17.0639 20.2043L17.9517 6H15.0027L15 6L14.9973 6H9.00271L9 6Z" fill="#1E293B"/>
</svg>
