<svg width="129" height="129" viewBox="0 0 129 129" fill="none" xmlns="http://www.w3.org/2000/svg">
<path opacity="0.5" d="M5.625 97.2083H123.375M64.5 38.3333L51.4167 64.5M64.5 38.3333L77.5833 64.5M64.5 38.3333H35.0625C30.7251 38.3333 26.5653 36.6103 23.4983 33.5433C20.4313 30.4763 18.7083 26.3166 18.7083 21.9792C18.7083 17.6418 20.4313 13.482 23.4983 10.415C26.5653 7.34801 30.7251 5.625 35.0625 5.625C57.9583 5.625 64.5 38.3333 64.5 38.3333ZM64.5 38.3333H93.9375C98.2746 38.3333 102.434 36.6103 105.502 33.5433C108.569 30.4763 110.292 26.3166 110.292 21.9792C110.292 17.6418 108.569 13.482 105.502 10.415C102.434 7.34801 98.2746 5.625 93.9375 5.625C71.0417 5.625 64.5 38.3333 64.5 38.3333ZM26.5583 123.375H102.442C109.769 123.375 113.433 123.375 116.232 121.949C118.693 120.695 120.695 118.693 121.949 116.232C123.375 113.433 123.375 109.769 123.375 102.442V59.2667C123.375 51.9393 123.375 48.2756 121.949 45.477C120.695 43.0151 118.693 41.0136 116.232 39.7593C113.433 38.3333 109.769 38.3333 102.442 38.3333H26.5583C19.231 38.3333 15.5673 38.3333 12.7686 39.7593C10.3068 41.0136 8.30532 43.0151 7.05102 45.477C5.625 48.2756 5.625 51.9393 5.625 59.2667V102.442C5.625 109.769 5.625 113.433 7.05102 116.232C8.30532 118.693 10.3068 120.695 12.7686 121.949C15.5673 123.375 19.2309 123.375 26.5583 123.375Z" stroke="#CC1414" stroke-width="10" stroke-linecap="round" stroke-linejoin="round"/>
</svg>
