<svg width="32" height="21" viewBox="0 0 32 21" fill="none" xmlns="http://www.w3.org/2000/svg">
<path fill-rule="evenodd" clip-rule="evenodd" d="M30.0704 9.18286C30.5174 10.9708 30.8154 12.8705 30.8899 14.584C30.9644 16.521 30.7782 17.8992 30.3684 18.8304C29.9587 19.7989 29.3255 20.3204 28.5805 20.5439C27.8727 20.7301 27.0533 20.6184 26.1965 20.2831C24.7438 19.6871 23.0676 18.4207 21.4286 16.8934C20.2739 15.776 18.1135 15.2172 15.953 15.2172C13.7925 15.2172 11.6321 15.776 10.4774 16.8934C8.83841 18.4207 7.16219 19.6871 5.70947 20.2831C4.85274 20.6556 4.03326 20.7301 3.32552 20.5439C2.54329 20.3204 1.9473 19.7616 1.53756 18.8677C1.12782 17.8992 0.941576 16.521 1.01607 14.6212C1.09057 12.9078 1.38857 11.0081 1.83556 9.22011C2.2453 7.50665 2.84128 5.90493 3.51177 4.67571C6.1048 0.0823365 8.91886 0.793718 12.2837 1.64433L12.3398 1.65852C12.4363 1.6818 12.5333 1.70538 12.631 1.7291C13.6266 1.971 14.6812 2.22724 15.7668 2.32901H16.1392C17.2248 2.22724 18.2794 1.971 19.275 1.7291C19.3727 1.70539 19.4697 1.68181 19.5662 1.65852C22.9559 0.764541 25.7868 0.0568063 28.3942 4.63846C29.0647 5.86768 29.6235 7.4694 30.0704 9.18286ZM28.208 19.2402C28.5805 19.1284 28.8785 18.8304 29.102 18.309C29.4372 17.5267 29.5862 16.372 29.5117 14.6585C29.4372 13.0196 29.1392 11.2316 28.7295 9.51815C28.3198 7.87918 27.7983 6.42647 27.165 5.30899C25.1342 1.6535 22.774 2.24383 19.9754 2.94378L19.9014 2.96229C18.7467 3.26028 17.5547 3.55828 16.2138 3.67002H16.1393H15.7295H15.655C14.3513 3.55828 13.1593 3.26028 12.0046 2.96229C9.17367 2.21731 6.78972 1.62132 4.74101 5.30899C4.10778 6.42647 3.58629 7.91643 3.17655 9.51815C2.72956 11.2316 2.46881 13.0568 2.39432 14.6585C2.31982 16.372 2.46881 17.5267 2.76681 18.2345C2.9903 18.7559 3.2883 19.0539 3.66079 19.1657C4.07053 19.3147 4.59202 19.2029 5.188 18.9794C6.45448 18.4952 7.98169 17.3032 9.50891 15.8878C10.9616 14.5468 13.4573 13.8391 15.953 13.8391C18.4487 13.8391 20.9444 14.5468 22.3599 15.9623C23.8499 17.3777 25.3771 18.5325 26.6808 19.0539C27.2768 19.2774 27.7983 19.3519 28.208 19.2402Z" fill="#FFCC00"/>
<path d="M30.8899 14.584L31.1397 14.5744L31.1397 14.5731L30.8899 14.584ZM30.0704 9.18286L30.313 9.12222L30.3124 9.11975L30.0704 9.18286ZM30.3684 18.8304L30.1396 18.7297L30.1382 18.733L30.3684 18.8304ZM28.5805 20.5439L28.6441 20.7858L28.6523 20.7833L28.5805 20.5439ZM26.1965 20.2831L26.1016 20.5144L26.1054 20.5159L26.1965 20.2831ZM21.4286 16.8934L21.2547 17.0731L21.2582 17.0763L21.4286 16.8934ZM10.4774 16.8934L10.6478 17.0764L10.6512 17.0731L10.4774 16.8934ZM5.70947 20.2831L5.61456 20.0518L5.60979 20.0539L5.70947 20.2831ZM3.32552 20.5439L3.25683 20.7843L3.2619 20.7856L3.32552 20.5439ZM1.53756 18.8677L1.30722 18.9651L1.3103 18.9718L1.53756 18.8677ZM1.01607 14.6212L0.766308 14.6104L0.766266 14.6114L1.01607 14.6212ZM1.83556 9.22011L2.0781 9.28075L2.0787 9.27825L1.83556 9.22011ZM3.51177 4.67571L3.29404 4.5528L3.2923 4.55599L3.51177 4.67571ZM12.2837 1.64433L12.2224 1.8867L12.2224 1.8867L12.2837 1.64433ZM12.3398 1.65852L12.2786 1.90091L12.2812 1.90154L12.3398 1.65852ZM12.631 1.7291L12.5719 1.97203L12.631 1.7291ZM15.7668 2.32901L15.7434 2.57792L15.7551 2.57901H15.7668V2.32901ZM16.1392 2.32901V2.57901H16.1509L16.1626 2.57792L16.1392 2.32901ZM19.275 1.7291L19.216 1.48617V1.48617L19.275 1.7291ZM19.5662 1.65852L19.6248 1.9016L19.6299 1.90026L19.5662 1.65852ZM28.3942 4.63846L28.6137 4.51872L28.6115 4.5148L28.3942 4.63846ZM29.102 18.309L28.8722 18.2105V18.2105L29.102 18.309ZM28.208 19.2402L28.2738 19.4815L28.2798 19.4796L28.208 19.2402ZM29.5117 14.6585L29.7615 14.6477L29.7615 14.6472L29.5117 14.6585ZM28.7295 9.51815L28.9727 9.46L28.972 9.45751L28.7295 9.51815ZM27.165 5.30899L26.9465 5.4304L26.9475 5.43224L27.165 5.30899ZM19.9754 2.94378L20.0361 3.18631L20.0361 3.18631L19.9754 2.94378ZM19.9014 2.96229L19.8408 2.71975L19.839 2.72022L19.9014 2.96229ZM16.2138 3.67002V3.92002H16.2242L16.2345 3.91916L16.2138 3.67002ZM15.655 3.67002L15.6337 3.91911L15.6443 3.92002H15.655V3.67002ZM12.0046 2.96229L11.941 3.20406L11.9421 3.20436L12.0046 2.96229ZM4.74101 5.30899L4.95853 5.43225L4.95955 5.4304L4.74101 5.30899ZM3.17655 9.51815L3.41846 9.58125L3.41875 9.58011L3.17655 9.51815ZM2.39432 14.6585L2.14458 14.6469L2.14455 14.6477L2.39432 14.6585ZM2.76681 18.2345L2.53639 18.3315L2.53702 18.3329L2.76681 18.2345ZM3.66079 19.1657L3.74622 18.9307L3.73949 18.9283L3.73262 18.9262L3.66079 19.1657ZM5.188 18.9794L5.27579 19.2135L5.27729 19.213L5.188 18.9794ZM9.50891 15.8878L9.33934 15.7041L9.33897 15.7044L9.50891 15.8878ZM22.3599 15.9623L22.1831 16.1391L22.1877 16.1435L22.3599 15.9623ZM26.6808 19.0539L26.5879 19.2861L26.593 19.288L26.6808 19.0539ZM31.1397 14.5731C31.0644 12.8404 30.7634 10.9239 30.313 9.12223L29.8279 9.24349C30.2715 11.0177 30.5665 12.9007 30.6402 14.5949L31.1397 14.5731ZM30.5973 18.9311C31.0298 17.9482 31.2148 16.5248 31.1397 14.5744L30.6401 14.5936C30.7141 16.5171 30.5266 17.8502 30.1396 18.7297L30.5973 18.9311ZM28.6523 20.7833C29.4736 20.5369 30.162 19.9599 30.5987 18.9278L30.1382 18.733C29.7554 19.6379 29.1773 20.1038 28.5086 20.3044L28.6523 20.7833ZM26.1054 20.5159C26.9909 20.8624 27.8673 20.9901 28.6441 20.7856L28.5169 20.3021C27.8782 20.4702 27.1156 20.3743 26.2876 20.0503L26.1054 20.5159ZM21.2582 17.0763C22.9032 18.6092 24.6062 19.9009 26.1016 20.5144L26.2914 20.0518C24.8814 19.4734 23.232 18.2321 21.5991 16.7105L21.2582 17.0763ZM15.953 15.4672C18.0888 15.4672 20.1692 16.0226 21.2548 17.0731L21.6025 16.7138C20.3786 15.5294 18.1381 14.9672 15.953 14.9672V15.4672ZM10.6512 17.0731C11.7368 16.0226 13.8172 15.4672 15.953 15.4672V14.9672C13.7679 14.9672 11.5274 15.5294 10.3035 16.7138L10.6512 17.0731ZM5.80436 20.5144C7.29982 19.9009 9.00278 18.6092 10.6478 17.0763L10.3069 16.7105C8.67403 18.2321 7.02456 19.4734 5.61458 20.0518L5.80436 20.5144ZM3.2619 20.7856C4.03306 20.9886 4.91031 20.9032 5.80915 20.5124L5.60979 20.0539C4.79517 20.408 4.03346 20.4717 3.38915 20.3021L3.2619 20.7856ZM1.3103 18.9718C1.74351 19.917 2.38978 20.5365 3.25684 20.7842L3.3942 20.3035C2.69681 20.1042 2.1511 19.6063 1.76483 18.7635L1.3103 18.9718ZM0.766266 14.6114C0.691159 16.5267 0.876804 17.9475 1.30732 18.9651L1.7678 18.7702C1.37884 17.8509 1.19199 16.5152 1.26588 14.631L0.766266 14.6114ZM1.59302 9.15948C1.1426 10.9612 0.841646 12.8777 0.76631 14.6104L1.26584 14.6321C1.3395 12.9379 1.63453 11.055 2.07809 9.28074L1.59302 9.15948ZM3.2923 4.55599C2.60926 5.80823 2.00623 7.43145 1.59241 9.16197L2.0787 9.27825C2.48437 7.58184 3.07331 6.00163 3.73124 4.79542L3.2923 4.55599ZM12.3449 1.40195C10.6773 0.980367 9.07366 0.570135 7.55922 0.873391C6.01762 1.18208 4.61356 2.21541 3.29406 4.55281L3.72948 4.79861C5.00301 2.54263 6.3025 1.63497 7.65739 1.36366C9.03944 1.08691 10.5253 1.45768 12.2224 1.8867L12.3449 1.40195ZM12.4011 1.41615L12.3449 1.40195L12.2224 1.8867L12.2786 1.9009L12.4011 1.41615ZM12.69 1.48617C12.5924 1.46246 12.4952 1.43884 12.3985 1.4155L12.2812 1.90154C12.3774 1.92477 12.4743 1.94831 12.5719 1.97203L12.69 1.48617ZM15.7901 2.0801C14.7255 1.9803 13.6883 1.72872 12.69 1.48617L12.5719 1.97203C13.5649 2.21328 14.6369 2.47418 15.7434 2.57792L15.7901 2.0801ZM16.1392 2.07901H15.7668V2.57901H16.1392V2.07901ZM19.216 1.48617C18.2177 1.72872 17.1805 1.9803 16.1159 2.0801L16.1626 2.57792C17.2691 2.47418 18.3411 2.21328 19.3341 1.97204L19.216 1.48617ZM19.5075 1.4155C19.4108 1.43884 19.3136 1.46246 19.216 1.48617L19.3341 1.97204C19.4317 1.94831 19.5286 1.92477 19.6248 1.90154L19.5075 1.4155ZM28.6115 4.5148C27.2845 2.18312 25.8723 1.15199 24.3214 0.849744C22.7974 0.552732 21.1837 0.973365 19.5024 1.41679L19.6299 1.90026C21.3383 1.4497 22.835 1.06947 24.2257 1.34051C25.5896 1.60631 26.8965 2.51214 28.177 4.76211L28.6115 4.5148ZM30.3124 9.11975C29.8629 7.39691 29.298 5.77328 28.6137 4.51874L28.1748 4.75817C28.8314 5.96209 29.384 7.54188 29.8285 9.24597L30.3124 9.11975ZM28.8722 18.2105C28.6666 18.6901 28.4143 18.9173 28.1362 19.0007L28.2798 19.4796C28.7467 19.3396 29.0904 18.9708 29.3318 18.4074L28.8722 18.2105ZM29.262 14.6694C29.3359 16.3707 29.1852 17.4802 28.8722 18.2105L29.3318 18.4074C29.6893 17.5732 29.8365 16.3733 29.7615 14.6477L29.262 14.6694ZM28.4864 9.57629C28.8936 11.2795 29.1884 13.0512 29.262 14.6699L29.7615 14.6472C29.6861 12.9879 29.3848 11.1837 28.9726 9.46L28.4864 9.57629ZM26.9475 5.43224C27.5656 6.52289 28.0802 7.95193 28.487 9.57878L28.972 9.45751C28.5593 7.80643 28.031 6.33004 27.3825 5.18574L26.9475 5.43224ZM20.0361 3.18631C21.45 2.83269 22.6827 2.52892 23.8124 2.73889C24.9129 2.9434 25.9561 3.64761 26.9465 5.4304L27.3836 5.18758C26.3432 3.31488 25.1908 2.48651 23.9038 2.2473C22.6461 2.01355 21.2995 2.35493 19.9148 2.70125L20.0361 3.18631ZM19.9621 3.20482L20.0361 3.18631L19.9148 2.70125L19.8408 2.71976L19.9621 3.20482ZM16.2345 3.91916C17.5989 3.80546 18.8094 3.50231 19.9639 3.20436L19.839 2.72022C18.6841 3.01826 17.5106 3.31109 16.193 3.42089L16.2345 3.91916ZM16.1393 3.92002H16.2138V3.42002H16.1393V3.92002ZM15.7295 3.92002H16.1393V3.42002H15.7295V3.92002ZM15.655 3.92002H15.7295V3.42002H15.655V3.92002ZM11.9421 3.20436C13.0963 3.50221 14.3067 3.80537 15.6337 3.91911L15.6764 3.42094C14.3959 3.31118 13.2224 3.01836 12.0671 2.72022L11.9421 3.20436ZM4.95955 5.4304C5.95897 3.63144 7.01229 2.92114 8.12411 2.71938C9.26516 2.51231 10.5119 2.82799 11.941 3.20406L12.0682 2.72052C10.6663 2.3516 9.30568 1.9968 8.03484 2.22741C6.73477 2.46333 5.57176 3.29886 4.52248 5.18758L4.95955 5.4304ZM3.41875 9.58011C3.82601 7.9881 4.34088 6.5222 4.95852 5.43224L4.52351 5.18574C3.87468 6.33073 3.34657 7.84477 2.93435 9.45619L3.41875 9.58011ZM2.64405 14.6702C2.71777 13.0851 2.97604 11.2772 3.41845 9.58125L2.93464 9.45504C2.48308 11.1861 2.21986 13.0286 2.14459 14.6469L2.64405 14.6702ZM2.99722 18.1374C2.72119 17.4819 2.57003 16.3725 2.64408 14.6694L2.14455 14.6477C2.0696 16.3715 2.21643 17.5716 2.5364 18.3315L2.99722 18.1374ZM3.73262 18.9262C3.45449 18.8428 3.20216 18.6156 2.99659 18.136L2.53702 18.3329C2.77844 18.8963 3.1221 19.2651 3.58895 19.4051L3.73262 18.9262ZM5.10022 18.7454C4.50504 18.9686 4.06233 19.0457 3.74622 18.9307L3.57535 19.4006C4.07873 19.5837 4.679 19.4373 5.27579 19.2135L5.10022 18.7454ZM9.33897 15.7044C7.81261 17.1191 6.31603 18.2805 5.09872 18.7459L5.27729 19.213C6.59293 18.7099 8.15078 17.4874 9.67885 16.0711L9.33897 15.7044ZM15.953 13.5891C13.4233 13.5891 10.8558 14.3043 9.33934 15.7041L9.67848 16.0715C11.0675 14.7893 13.4914 14.0891 15.953 14.0891V13.5891ZM22.5367 15.7855C21.0549 14.3037 18.4813 13.5891 15.953 13.5891V14.0891C18.4161 14.0891 20.8339 14.7899 22.1831 16.139L22.5367 15.7855ZM26.7736 18.8218C25.5148 18.3183 24.0154 17.1902 22.5321 15.781L22.1877 16.1435C23.6843 17.5652 25.2393 18.7466 26.5879 19.2861L26.7736 18.8218ZM28.1422 18.999C27.8069 19.0905 27.345 19.036 26.7686 18.8199L26.593 19.288C27.2086 19.5189 27.7896 19.6134 28.2738 19.4814L28.1422 18.999Z" fill="#FFCC00"/>
<path fill-rule="evenodd" clip-rule="evenodd" d="M11.1851 6.68716C11.7066 6.72441 12.1536 6.98515 12.5261 7.3204C12.8986 7.69289 13.1594 8.25163 13.1594 8.84761C13.1594 9.4436 12.9359 9.96509 12.5261 10.3748C12.1909 10.7473 11.7066 10.9708 11.1851 11.0081C11.1479 11.5296 10.8872 11.9765 10.5519 12.349C10.1794 12.7215 9.62068 12.9823 9.02469 12.9823C8.42871 12.9823 7.90722 12.7588 7.49748 12.349C7.12498 12.0138 6.90149 11.5296 6.86424 11.0081C6.3055 10.9708 5.85851 10.7473 5.48602 10.3748C5.11353 10.0023 4.85278 9.4436 4.85278 8.84761C4.85278 8.25163 5.07628 7.73014 5.48602 7.3204L5.52327 7.28315C5.89576 6.9479 6.34275 6.72441 6.86424 6.68716C6.90149 6.16567 7.16223 5.68143 7.49748 5.34619C7.86997 4.9737 8.42871 4.71295 9.02469 4.71295C9.62068 4.71295 10.1422 4.93645 10.5519 5.34619L10.5892 5.38344C10.9244 5.71868 11.1479 6.20292 11.1851 6.68716ZM11.0361 9.62985C11.2596 9.62985 11.4459 9.55536 11.5949 9.40636C11.7439 9.25736 11.8184 9.07112 11.8184 8.84762C11.8184 8.62413 11.7439 8.43788 11.5949 8.28888C11.4459 8.13989 11.2596 8.06539 11.0361 8.06539H10.5146C10.1049 8.06539 9.8069 7.73014 9.8069 7.35765V6.83616C9.8069 6.64992 9.7324 6.46367 9.62066 6.31468L9.58341 6.27743C9.43441 6.12843 9.24816 6.05393 9.02467 6.05393C8.80117 6.05393 8.61493 6.12843 8.46593 6.27743C8.31693 6.42642 8.24244 6.61267 8.24244 6.83616V7.35765C8.24244 7.76739 7.90719 8.06539 7.5347 8.06539H7.01321C6.82697 8.06539 6.64072 8.13989 6.49172 8.25163L6.45447 8.28888C6.30548 8.43788 6.23098 8.62413 6.23098 8.84762C6.23098 9.07112 6.34273 9.25736 6.45447 9.36911C6.60347 9.51811 6.78972 9.5926 7.01321 9.5926H7.5347C7.94444 9.5926 8.24244 9.92785 8.24244 10.3003V10.8218C8.24244 11.0453 8.31693 11.2316 8.46593 11.3806C8.61493 11.5296 8.80117 11.6041 9.02467 11.6041C9.24816 11.6041 9.43441 11.5296 9.58341 11.3806C9.7324 11.2316 9.8069 11.0453 9.8069 10.8218V10.3376C9.8069 9.92785 10.1421 9.62985 10.5146 9.62985H11.0361Z" fill="#FFCC00"/>
<path d="M12.5261 7.3204L12.6323 7.21418L12.6265 7.2089L12.5261 7.3204ZM11.1851 6.68716L11.0356 6.69866L11.0455 6.82757L11.1745 6.83678L11.1851 6.68716ZM12.5261 10.3748L12.4199 10.2686L12.4146 10.2745L12.5261 10.3748ZM11.1851 11.0081L11.1745 10.8584L11.0448 10.8677L11.0355 10.9974L11.1851 11.0081ZM10.5519 12.349L10.6581 12.4553L10.6634 12.4494L10.5519 12.349ZM7.49748 12.349L7.60369 12.2428L7.59782 12.2375L7.49748 12.349ZM6.86424 11.0081L7.01386 10.9974L7.00455 10.8671L6.87422 10.8584L6.86424 11.0081ZM5.48602 10.3748L5.59209 10.2688L5.59209 10.2688L5.48602 10.3748ZM5.48602 7.3204L5.37995 7.21433H5.37995L5.48602 7.3204ZM5.52327 7.28315L5.42279 7.1715L5.4172 7.17708L5.52327 7.28315ZM6.86424 6.68716L6.87493 6.83678L7.0046 6.82752L7.01386 6.69785L6.86424 6.68716ZM7.49748 5.34619L7.60354 5.45225L7.49748 5.34619ZM10.5519 5.34619L10.4458 5.45225L10.4458 5.45225L10.5519 5.34619ZM10.5892 5.38344L10.6952 5.27737L10.6952 5.27737L10.5892 5.38344ZM11.5949 8.28888L11.7009 8.18282H11.7009L11.5949 8.28888ZM9.62066 6.31468L9.74066 6.22468L9.73426 6.21615L9.72672 6.20861L9.62066 6.31468ZM9.58341 6.27743L9.68947 6.17136L9.68947 6.17136L9.58341 6.27743ZM8.46593 6.27743L8.35986 6.17136V6.17136L8.46593 6.27743ZM6.49172 8.25163L6.40172 8.13163L6.39319 8.13803L6.38566 8.14557L6.49172 8.25163ZM6.45447 8.28888L6.34841 8.18282L6.34841 8.18282L6.45447 8.28888ZM6.45447 9.36911L6.34841 9.47518L6.45447 9.36911ZM8.46593 11.3806L8.572 11.2745H8.572L8.46593 11.3806ZM9.58341 11.3806L9.47734 11.2745H9.47734L9.58341 11.3806ZM12.6265 7.2089C12.2397 6.86082 11.7624 6.57801 11.1958 6.53754L11.1745 6.83678C11.6508 6.87081 12.0676 7.10949 12.4258 7.43189L12.6265 7.2089ZM13.3094 8.84761C13.3094 8.20924 13.0309 7.61306 12.6322 7.21433L12.4201 7.42646C12.7663 7.77272 13.0094 8.29401 13.0094 8.84761H13.3094ZM12.6322 10.4809C13.0695 10.0435 13.3094 9.48411 13.3094 8.84761H13.0094C13.0094 9.40309 12.8022 9.88663 12.4201 10.2688L12.6322 10.4809ZM11.1958 11.1577C11.7526 11.1179 12.2742 10.879 12.6376 10.4752L12.4146 10.2745C12.1076 10.6156 11.6607 10.8237 11.1745 10.8584L11.1958 11.1577ZM10.6634 12.4494C11.0115 12.0626 11.2943 11.5854 11.3348 11.0188L11.0355 10.9974C11.0015 11.4738 10.7628 11.8905 10.4404 12.2487L10.6634 12.4494ZM9.02469 13.1323C9.66306 13.1323 10.2592 12.8538 10.658 12.4551L10.4458 12.243C10.0996 12.5892 9.5783 12.8323 9.02469 12.8323V13.1323ZM7.39141 12.4551C7.82876 12.8925 8.38819 13.1323 9.02469 13.1323V12.8323C8.46922 12.8323 7.98567 12.6251 7.60354 12.243L7.39141 12.4551ZM6.71462 11.0188C6.75439 11.5755 6.99331 12.0971 7.39713 12.4605L7.59782 12.2375C7.25666 11.9305 7.04859 11.4836 7.01386 10.9974L6.71462 11.0188ZM5.37995 10.4809C5.77616 10.8771 6.25657 11.1179 6.85426 11.1577L6.87422 10.8584C6.35443 10.8237 5.94086 10.6175 5.59209 10.2688L5.37995 10.4809ZM4.70278 8.84761C4.70278 9.48598 4.98122 10.0822 5.37995 10.4809L5.59209 10.2688C5.24583 9.92251 5.00278 9.40122 5.00278 8.84761H4.70278ZM5.37995 7.21433C4.9426 7.65168 4.70278 8.21111 4.70278 8.84761H5.00278C5.00278 8.29214 5.20996 7.80859 5.59209 7.42646L5.37995 7.21433ZM5.4172 7.17708L5.37995 7.21433L5.59209 7.42646L5.62933 7.38921L5.4172 7.17708ZM6.85355 6.53754C6.29316 6.57757 5.8157 6.81816 5.42292 7.17165L5.62361 7.39464C5.97582 7.07765 6.39234 6.87125 6.87493 6.83678L6.85355 6.53754ZM7.39141 5.24012C7.03489 5.59665 6.75484 6.11343 6.71462 6.67647L7.01386 6.69785C7.04814 6.21791 7.28958 5.76622 7.60354 5.45225L7.39141 5.24012ZM9.02469 4.56295C8.38632 4.56295 7.79014 4.84139 7.39141 5.24012L7.60354 5.45225C7.9498 5.106 8.47109 4.86295 9.02469 4.86295V4.56295ZM10.658 5.24012C10.2206 4.80277 9.66119 4.56295 9.02469 4.56295V4.86295C9.58017 4.86295 10.0637 5.07012 10.4458 5.45225L10.658 5.24012ZM10.6952 5.27737L10.658 5.24012L10.4458 5.45225L10.4831 5.4895L10.6952 5.27737ZM11.3347 6.67565C11.2947 6.156 11.056 5.63813 10.6952 5.27737L10.4831 5.4895C10.7928 5.79923 11.0011 6.24984 11.0356 6.69866L11.3347 6.67565ZM11.4888 9.30029C11.3698 9.41932 11.2225 9.47985 11.0361 9.47985V9.77985C11.2967 9.77985 11.522 9.69139 11.7009 9.51242L11.4888 9.30029ZM11.6684 8.84762C11.6684 9.03401 11.6078 9.18126 11.4888 9.30029L11.7009 9.51242C11.8799 9.33346 11.9684 9.10822 11.9684 8.84762H11.6684ZM11.4888 8.39495C11.6078 8.51398 11.6684 8.66123 11.6684 8.84762H11.9684C11.9684 8.58702 11.8799 8.36178 11.7009 8.18282L11.4888 8.39495ZM11.0361 8.21539C11.2225 8.21539 11.3698 8.27592 11.4888 8.39495L11.7009 8.18282C11.522 8.00385 11.2967 7.91539 11.0361 7.91539V8.21539ZM10.5146 8.21539H11.0361V7.91539H10.5146V8.21539ZM9.6569 7.35765C9.6569 7.8078 10.017 8.21539 10.5146 8.21539V7.91539C10.1928 7.91539 9.9569 7.65249 9.9569 7.35765H9.6569ZM9.6569 6.83616V7.35765H9.9569V6.83616H9.6569ZM9.50066 6.40468C9.59707 6.53322 9.6569 6.68865 9.6569 6.83616H9.9569C9.9569 6.61119 9.86774 6.39412 9.74066 6.22468L9.50066 6.40468ZM9.47734 6.38349L9.51459 6.42074L9.72672 6.20861L9.68947 6.17136L9.47734 6.38349ZM9.02467 6.20393C9.21106 6.20393 9.35831 6.26446 9.47734 6.38349L9.68947 6.17136C9.51051 5.99239 9.28527 5.90393 9.02467 5.90393V6.20393ZM8.572 6.38349C8.69102 6.26446 8.83828 6.20393 9.02467 6.20393V5.90393C8.76407 5.90393 8.53883 5.99239 8.35986 6.17136L8.572 6.38349ZM8.39244 6.83616C8.39244 6.64977 8.45297 6.50252 8.572 6.38349L8.35986 6.17136C8.1809 6.35033 8.09244 6.57556 8.09244 6.83616H8.39244ZM8.39244 7.35765V6.83616H8.09244V7.35765H8.39244ZM7.5347 8.21539C7.98485 8.21539 8.39244 7.85533 8.39244 7.35765H8.09244C8.09244 7.67946 7.82954 7.91539 7.5347 7.91539V8.21539ZM7.01321 8.21539H7.5347V7.91539H7.01321V8.21539ZM6.58172 8.37163C6.71027 8.27522 6.8657 8.21539 7.01321 8.21539V7.91539C6.78823 7.91539 6.57117 8.00455 6.40172 8.13163L6.58172 8.37163ZM6.56054 8.39495L6.59779 8.3577L6.38566 8.14557L6.34841 8.18282L6.56054 8.39495ZM6.38098 8.84762C6.38098 8.66123 6.44151 8.51398 6.56054 8.39495L6.34841 8.18282C6.16944 8.36178 6.08098 8.58702 6.08098 8.84762H6.38098ZM6.56054 9.26304C6.46887 9.17137 6.38098 9.02123 6.38098 8.84762H6.08098C6.08098 9.121 6.21659 9.34335 6.34841 9.47518L6.56054 9.26304ZM7.01321 9.4426C6.82682 9.4426 6.67957 9.38207 6.56054 9.26304L6.34841 9.47518C6.52737 9.65414 6.75261 9.7426 7.01321 9.7426V9.4426ZM7.5347 9.4426H7.01321V9.7426H7.5347V9.4426ZM8.39244 10.3003C8.39244 9.85019 8.03238 9.4426 7.5347 9.4426V9.7426C7.8565 9.7426 8.09244 10.0055 8.09244 10.3003H8.39244ZM8.39244 10.8218V10.3003H8.09244V10.8218H8.39244ZM8.572 11.2745C8.45297 11.1555 8.39244 11.0082 8.39244 10.8218H8.09244C8.09244 11.0824 8.1809 11.3077 8.35986 11.4866L8.572 11.2745ZM9.02467 11.4541C8.83828 11.4541 8.69102 11.3935 8.572 11.2745L8.35986 11.4866C8.53883 11.6656 8.76407 11.7541 9.02467 11.7541V11.4541ZM9.47734 11.2745C9.35831 11.3935 9.21106 11.4541 9.02467 11.4541V11.7541C9.28527 11.7541 9.51051 11.6656 9.68947 11.4866L9.47734 11.2745ZM9.6569 10.8218C9.6569 11.0082 9.59637 11.1555 9.47734 11.2745L9.68947 11.4866C9.86844 11.3077 9.9569 11.0824 9.9569 10.8218H9.6569ZM9.6569 10.3376V10.8218H9.9569V10.3376H9.6569ZM10.5146 9.47985C10.0645 9.47985 9.6569 9.83991 9.6569 10.3376H9.9569C9.9569 10.0158 10.2198 9.77985 10.5146 9.77985V9.47985ZM11.0361 9.47985H10.5146V9.77985H11.0361V9.47985Z" fill="#454744"/>
<circle cx="22.4345" cy="6.20289" r="1.30372" fill="#FFCC00"/>
<circle cx="22.4345" cy="11.4923" r="1.30372" fill="#FFCC00"/>
<circle cx="19.7895" cy="8.84755" r="1.30372" fill="#FFCC00"/>
<circle cx="25.079" cy="8.84755" r="1.30372" fill="#FFCC00"/>
</svg>
