<svg width="19" height="20" viewBox="0 0 19 20" fill="none" xmlns="http://www.w3.org/2000/svg">
<g opacity="1">
<path d="M2.03115 6.06829L2.58743 6.77578H2.58743L2.03115 6.06829ZM6.4 18.5102V19.4102H7.3V18.5102H6.4ZM11.8 18.5102H10.9V19.4102H11.8V18.5102ZM16.1689 6.06829L16.7251 5.3608V5.3608L16.1689 6.06829ZM10.2126 1.38501L9.65628 2.09251V2.09251L10.2126 1.38501ZM7.98743 1.38501L7.43115 0.677519V0.677519L7.98743 1.38501ZM1.9 8.19077C1.9 7.63864 2.1534 7.11705 2.58743 6.77578L1.47486 5.3608C0.606796 6.04333 0.1 7.08651 0.1 8.19077H1.9ZM1.9 17.6102V8.19077H0.1V17.6102H1.9ZM1.9 17.6102H1.9H0.1C0.1 18.6043 0.905886 19.4102 1.9 19.4102V17.6102ZM6.4 17.6102H1.9V19.4102H6.4V17.6102ZM7.3 18.5102V13.0414H5.5V18.5102H7.3ZM7.3 13.0414V11.2414C6.30589 11.2414 5.5 12.0473 5.5 13.0414H7.3ZM7.3 13.0414H10.9V11.2414H7.3V13.0414ZM10.9 13.0414H10.9H12.7C12.7 12.0473 11.8941 11.2414 10.9 11.2414V13.0414ZM10.9 13.0414V18.5102H12.7V13.0414H10.9ZM16.3 17.6102H11.8V19.4102H16.3V17.6102ZM16.3 17.6102V19.4102C17.2941 19.4102 18.1 18.6043 18.1 17.6102H16.3ZM16.3 8.19077V17.6102H18.1V8.19077H16.3ZM15.6126 6.77578C16.0466 7.11705 16.3 7.63864 16.3 8.19077H18.1C18.1 7.08651 17.5932 6.04334 16.7251 5.3608L15.6126 6.77578ZM9.65628 2.09251L15.6126 6.77578L16.7251 5.3608L10.7689 0.67752L9.65628 2.09251ZM8.54372 2.09251C8.87016 1.83583 9.32984 1.83583 9.65628 2.09251L10.7689 0.67752C9.78952 -0.0925047 8.41048 -0.0925068 7.43115 0.677519L8.54372 2.09251ZM2.58743 6.77578L8.54372 2.09251L7.43115 0.677519L1.47486 5.3608L2.58743 6.77578Z" fill="white"/>
</g>
</svg>
