<svg width="20" height="20" viewBox="0 0 20 20" fill="none" xmlns="http://www.w3.org/2000/svg">
<path d="M13.4496 2.46664L5.92461 4.96664C0.866276 6.65831 0.866276 9.41664 5.92461 11.1L8.15794 11.8416L8.89961 14.075C10.5829 19.1333 13.3496 19.1333 15.0329 14.075L17.5413 6.55831C18.6579 3.18331 16.8246 1.34164 13.4496 2.46664ZM13.7163 6.94997L10.5496 10.1333C10.4246 10.2583 10.2663 10.3166 10.1079 10.3166C9.94961 10.3166 9.79128 10.2583 9.66628 10.1333C9.42461 9.89164 9.42461 9.49164 9.66628 9.24997L12.8329 6.06664C13.0746 5.82497 13.4746 5.82497 13.7163 6.06664C13.9579 6.30831 13.9579 6.70831 13.7163 6.94997Z" fill="white"/>
</svg>
