<svg width="234" height="101" viewBox="0 0 234 101" fill="none" xmlns="http://www.w3.org/2000/svg">
<path d="M11.7281 76.7098C19.7297 48.278 28.2199 28.2162 47.3603 2.0301C48.2937 0.753056 49.7888 0 51.3706 0H181.809C183.425 0 184.948 0.788203 185.88 2.107C205.889 30.4111 214.187 48.1079 222.272 76.7142C223.166 79.878 220.771 83 217.484 83H16.5208C13.2317 83 10.8371 79.8759 11.7281 76.7098Z" fill="url(#paint0_linear_107_242)"/>
<path d="M0 85C0 80.286 0 77.9289 1.46447 76.4645C2.92893 75 5.28595 75 10 75H224C228.714 75 231.071 75 232.536 76.4645C234 77.9289 234 80.286 234 85V101H0V85Z" fill="url(#paint1_linear_107_242)"/>
<defs>
<linearGradient id="paint0_linear_107_242" x1="117" y1="0" x2="117" y2="83" gradientUnits="userSpaceOnUse">
<stop stop-color="#660A0A"/>
<stop offset="1" stop-color="#CC1414"/>
</linearGradient>
<linearGradient id="paint1_linear_107_242" x1="117" y1="75" x2="117" y2="101" gradientUnits="userSpaceOnUse">
<stop offset="0.03" stop-color="#B01111"/>
<stop offset="0.47" stop-color="#B33535"/>
<stop offset="1" stop-color="#720B0B"/>
</linearGradient>
</defs>
</svg>
